<?xml version="1.0" encoding="UTF-8"?>
<svg id="_Слой_2" data-name="Слой 2" xmlns="http://www.w3.org/2000/svg" viewBox="0 0 560.37 62.71">
  <defs>
    <style>
      .cls-1 {
        fill: #fff;
      }

      .cls-2 {
        fill: #1d1d1b;
      }
    </style>
  </defs>
  <g id="_Слой_1-2" data-name="Слой 1">
    <g>
      <g>
        <path class="cls-1" d="m21.58,58c-3.06,0-5.88-.51-8.4-1.52-2.52-1.01-4.71-2.41-6.51-4.17-1.81-1.73-3.22-3.81-4.2-6.18-.98-2.36-1.47-4.92-1.47-7.61v-1.41c0-3.03.49-5.84,1.44-8.36.96-2.53,2.33-4.74,4.06-6.57,1.74-1.83,3.82-3.28,6.2-4.3,2.38-1.02,4.99-1.53,7.78-1.53s5.49.48,7.76,1.44c2.28.96,4.25,2.33,5.85,4.08,1.58,1.75,2.79,3.87,3.6,6.31.81,2.41,1.22,5.11,1.22,8.01v4.17c0,.55-.45,1-1,1H13.22c.26.93.56,1.7.9,2.31.46.82,1.09,1.58,1.87,2.26.8.7,1.73,1.24,2.77,1.62,1.04.38,2.19.58,3.44.58,1.8,0,3.56-.34,5.25-1.02,1.64-.66,2.99-1.66,4-2.97.18-.23.45-.37.75-.39.02,0,.03,0,.04,0,.28,0,.54.12.73.32l4.91,5.3c.32.35.36.87.08,1.26-1.33,1.89-3.45,3.61-6.29,5.11-2.84,1.51-6.24,2.27-10.08,2.27Zm5.68-25.43c-.02-.82-.19-1.6-.49-2.33-.33-.8-.78-1.5-1.35-2.09-.55-.55-1.25-1-2.08-1.34-.83-.34-1.81-.51-2.93-.51-.97,0-1.86.17-2.65.5-.79.33-1.48.82-2.06,1.44-.64.66-1.17,1.45-1.59,2.35-.28.61-.52,1.27-.71,1.97h13.86Z"/>
        <path class="cls-2" d="m20.49,17.34c2.76,0,5.21.45,7.37,1.36,2.16.91,3.99,2.19,5.5,3.83,1.48,1.65,2.62,3.64,3.39,5.96.78,2.32,1.17,4.88,1.17,7.69v4.17H11.97v.11c.33,1.53.75,2.76,1.27,3.69.52.93,1.21,1.77,2.08,2.53.9.78,1.92,1.38,3.08,1.8,1.15.42,2.42.64,3.78.64,1.93,0,3.81-.36,5.62-1.1,1.81-.73,3.29-1.83,4.42-3.29l4.91,5.3c-1.25,1.77-3.23,3.37-5.94,4.81-2.71,1.44-5.91,2.16-9.61,2.16-2.95,0-5.62-.48-8.02-1.45-2.4-.97-4.47-2.29-6.19-3.96-1.72-1.65-3.05-3.6-3.98-5.85-.93-2.25-1.4-4.66-1.4-7.23v-1.41c0-2.92.46-5.59,1.38-8.01.92-2.42,2.2-4.49,3.85-6.24,1.65-1.74,3.6-3.1,5.87-4.06,2.26-.97,4.72-1.45,7.39-1.45m-8.34,16.22h16.12v-.78c0-1.04-.19-2.01-.57-2.93-.38-.92-.9-1.72-1.56-2.4-.66-.66-1.47-1.18-2.42-1.57-.95-.39-2.06-.58-3.3-.58-1.11,0-2.12.19-3.04.58-.92.39-1.72.95-2.4,1.68-.71.73-1.3,1.6-1.77,2.62-.47,1.01-.83,2.14-1.06,3.39m8.34-18.22c-2.92,0-5.67.54-8.17,1.61-2.51,1.07-4.7,2.59-6.54,4.53-1.82,1.93-3.26,4.25-4.27,6.9-1,2.63-1.51,5.57-1.51,8.72v1.41c0,2.82.52,5.51,1.55,7.99,1.03,2.5,2.53,4.69,4.44,6.53,1.89,1.84,4.19,3.31,6.82,4.37,2.63,1.06,5.58,1.59,8.77,1.59,4.01,0,7.56-.8,10.55-2.39,2.98-1.58,5.21-3.4,6.63-5.42.55-.77.48-1.82-.17-2.51l-4.91-5.3c-.38-.41-.91-.64-1.47-.64-.03,0-.06,0-.09,0-.59.03-1.13.31-1.49.77-.92,1.19-2.09,2.06-3.58,2.66-1.57.63-3.21.95-4.87.95-1.13,0-2.17-.17-3.09-.51-.92-.34-1.75-.82-2.45-1.44-.69-.6-1.25-1.27-1.65-1.99-.14-.24-.27-.52-.39-.83h23.31c1.1,0,2-.9,2-2v-4.17c0-3.01-.43-5.81-1.27-8.32-.86-2.57-2.14-4.81-3.8-6.66-1.71-1.87-3.79-3.33-6.21-4.34-2.39-1.01-5.13-1.52-8.15-1.52h0Zm-5.7,16.22c.07-.19.15-.37.24-.55.38-.81.84-1.5,1.39-2.07.52-.55,1.08-.95,1.75-1.23.68-.29,1.42-.43,2.26-.43.98,0,1.84.15,2.55.44.71.29,1.29.66,1.76,1.14.46.48.84,1.06,1.12,1.75.13.31.22.63.29.95h-11.36Z"/>
      </g>
      <g>
        <path class="cls-1" d="m76.21,57.29c-.55,0-1-.45-1-1v-23.4c0-1.39-.15-2.53-.46-3.4-.28-.81-.68-1.45-1.19-1.9-.52-.46-1.13-.77-1.88-.96-.81-.2-1.75-.31-2.8-.31-.85,0-1.64.1-2.34.28-.67.18-1.28.45-1.79.81-.46.29-.85.6-1.18.96-.29.31-.57.65-.82,1.03v26.88c0,.55-.45,1-1,1h-9.86c-.55,0-1-.45-1-1V18.05c0-.55.45-1,1-1h8.91c.51,0,.94.38.99.89l.34,2.96c.06-.07.13-.13.19-.19.62-.62,1.29-1.19,2-1.7,1.22-.86,2.56-1.52,3.99-1.98,1.43-.45,2.97-.68,4.58-.68,2.04,0,3.93.3,5.63.91,1.74.62,3.28,1.6,4.56,2.94,1.26,1.36,2.24,3.1,2.93,5.17.68,2.04,1.02,4.53,1.02,7.4v23.54c0,.55-.45,1-1,1h-9.83Z"/>
        <path class="cls-2" d="m72.89,17.34c1.93,0,3.7.28,5.3.85,1.6.57,2.99,1.46,4.17,2.69,1.15,1.25,2.06,2.85,2.7,4.79.65,1.94.97,4.31.97,7.09v23.54h-9.83v-23.4c0-1.51-.17-2.75-.51-3.73-.34-.98-.83-1.75-1.47-2.32-.64-.57-1.4-.96-2.3-1.18-.9-.22-1.91-.34-3.04-.34-.94,0-1.81.11-2.6.32-.79.21-1.49.53-2.1.95-.49.31-.94.67-1.34,1.1-.4.42-.77.9-1.1,1.41v27.18h-9.86V18.05h8.91l.6,5.3c.49-.71,1.04-1.35,1.63-1.94.59-.59,1.21-1.12,1.87-1.59,1.13-.8,2.37-1.41,3.71-1.84,1.34-.42,2.77-.64,4.28-.64m0-2c-1.71,0-3.35.25-4.88.73-1.53.48-2.97,1.2-4.26,2.11-.29.21-.57.42-.84.64l-.11-1c-.11-1.01-.97-1.77-1.99-1.77h-8.91c-1.1,0-2,.9-2,2v38.24c0,1.1.9,2,2,2h9.86c1.1,0,2-.9,2-2v-26.56c.17-.23.36-.45.55-.66.28-.3.6-.56.94-.77.03-.02.06-.04.09-.06.42-.29.92-.52,1.48-.67.62-.17,1.32-.25,2.08-.25.96,0,1.82.09,2.55.28.58.15,1.06.39,1.45.74.38.33.68.83.91,1.48.26.76.4,1.79.4,3.07v23.4c0,1.1.9,2,2,2h9.83c1.1,0,2-.9,2-2v-23.54c0-2.98-.36-5.58-1.07-7.72-.74-2.21-1.79-4.06-3.13-5.51-1.42-1.48-3.08-2.55-4.97-3.22-1.81-.64-3.82-.96-5.97-.96h0Z"/>
      </g>
      <g>
        <path class="cls-1" d="m103.55,61.71c-.32,0-.63-.16-.81-.42-.19-.26-.24-.6-.13-.91L121.87,4.5c.14-.4.52-.67.95-.67h9.15c.32,0,.63.16.81.42.19.26.24.6.13.91l-19.26,55.88c-.14.4-.52.67-.95.67h-9.15Z"/>
        <path class="cls-2" d="m131.97,4.83l-19.26,55.88h-9.15L122.82,4.83h9.15m0-2h-9.15c-.85,0-1.61.54-1.89,1.35l-19.26,55.88c-.21.61-.11,1.29.26,1.81.38.53.98.84,1.63.84h9.15c.85,0,1.61-.54,1.89-1.35l19.26-55.88c.21-.61.11-1.29-.26-1.81-.38-.53-.98-.84-1.63-.84h0Z"/>
      </g>
      <g>
        <path class="cls-1" d="m139.76,61.71c-.32,0-.63-.16-.81-.42-.19-.26-.24-.6-.13-.91l19.26-55.88c.14-.4.52-.67.95-.67h9.15c.32,0,.63.16.81.42.19.26.24.6.13.91l-19.26,55.88c-.14.4-.52.67-.95.67h-9.15Z"/>
        <path class="cls-2" d="m168.17,4.83l-19.26,55.88h-9.15l19.26-55.88h9.15m0-2h-9.15c-.85,0-1.61.54-1.89,1.35l-19.26,55.88c-.21.61-.11,1.29.26,1.81.38.53.98.84,1.63.84h9.15c.85,0,1.61-.54,1.89-1.35l19.26-55.88c.21-.61.11-1.29-.26-1.81-.38-.53-.98-.84-1.63-.84h0Z"/>
      </g>
      <g>
        <path class="cls-1" d="m190.17,58.03c-2.97,0-5.64-.4-7.94-1.18-2.31-.79-4.27-1.85-5.84-3.14-1.58-1.28-2.81-2.78-3.63-4.44-.83-1.67-1.25-3.39-1.25-5.09,0-.55.45-1,1-1h9.37c.53,0,.96.41,1,.93.06.87.28,1.58.68,2.18.41.62.93,1.1,1.58,1.47.7.42,1.49.73,2.38.91.93.2,1.9.3,2.89.3,1.19,0,2.24-.1,3.11-.31.85-.2,1.54-.46,2.06-.78.44-.28.78-.61.99-.97.2-.34.3-.7.3-1.11s-.09-.75-.26-1.04c-.12-.21-.42-.54-1.08-.93-.6-.32-1.48-.65-2.56-.96-1.12-.32-2.56-.64-4.29-.97-2.29-.46-4.4-1.04-6.29-1.72-1.93-.7-3.62-1.57-5-2.59-1.42-1.01-2.55-2.22-3.36-3.58-.83-1.4-1.25-3.02-1.25-4.82s.42-3.41,1.25-4.99c.82-1.56,2.01-2.94,3.53-4.11,1.5-1.15,3.34-2.07,5.47-2.74,2.11-.66,4.52-1,7.16-1s5.25.33,7.46.98c2.22.66,4.15,1.57,5.71,2.71,1.59,1.2,2.81,2.64,3.66,4.27.85,1.64,1.28,3.45,1.28,5.37,0,.55-.45,1-1,1h-9.83c-.55,0-1-.45-1-1,0-.51-.08-.99-.25-1.43-.17-.43-.41-.82-.75-1.17-.46-.46-1.14-.86-1.99-1.16-.89-.31-2-.47-3.29-.47-1.11,0-2.08.11-2.89.32-.77.2-1.39.48-1.85.82-.41.3-.7.62-.9,1-.19.36-.29.74-.29,1.14s.08.79.25,1.13c.15.31.45.6.9.88.54.37,1.27.69,2.21.97.98.3,2.27.57,3.81.8,2.36.39,4.56.88,6.57,1.48,2.06.61,3.87,1.41,5.38,2.38,1.57,1.03,2.8,2.28,3.69,3.73.91,1.49,1.37,3.26,1.37,5.28,0,1.86-.45,3.61-1.35,5.18-.88,1.55-2.14,2.9-3.74,4.02-1.6,1.1-3.53,1.96-5.75,2.57-2.2.6-4.67.9-7.37.9Z"/>
        <path class="cls-2" d="m190.13,17.34c2.66,0,5.05.31,7.17.94,2.12.62,3.92,1.48,5.41,2.56,1.46,1.11,2.58,2.42,3.36,3.92.78,1.51,1.17,3.15,1.17,4.91h-9.83c0-.64-.11-1.23-.32-1.78s-.53-1.05-.95-1.5c-.59-.59-1.38-1.06-2.39-1.41s-2.21-.53-3.62-.53c-1.2,0-2.25.12-3.15.35-.9.24-1.63.57-2.19.99-.52.38-.91.82-1.18,1.33-.27.51-.41,1.04-.41,1.61s.12,1.09.35,1.57c.23.48.66.91,1.27,1.29.59.4,1.4.76,2.44,1.08,1.04.32,2.36.6,3.96.83,2.31.38,4.45.86,6.43,1.45,1.98.59,3.69,1.34,5.12,2.26,1.44.94,2.56,2.08,3.38,3.41.81,1.33,1.22,2.92,1.22,4.75,0,1.7-.41,3.26-1.22,4.68s-1.96,2.66-3.45,3.69c-1.51,1.04-3.32,1.84-5.44,2.42s-4.49.87-7.1.87c-2.88,0-5.41-.38-7.62-1.13s-4.05-1.74-5.53-2.97c-1.48-1.2-2.61-2.57-3.38-4.12-.77-1.54-1.15-3.09-1.15-4.65h9.37c.07,1.04.35,1.93.85,2.67.5.74,1.13,1.34,1.91,1.79.78.47,1.67.81,2.67,1.02s2.03.32,3.09.32c1.27,0,2.39-.11,3.34-.34.95-.22,1.74-.52,2.35-.9.59-.38,1.03-.81,1.33-1.31.29-.5.44-1.04.44-1.63s-.14-1.11-.41-1.56c-.27-.45-.75-.87-1.43-1.27-.71-.38-1.64-.73-2.79-1.06-1.15-.33-2.62-.66-4.38-.99-2.24-.45-4.28-1.01-6.13-1.68-1.85-.67-3.43-1.49-4.75-2.46-1.32-.94-2.35-2.04-3.09-3.29-.74-1.25-1.11-2.69-1.11-4.31s.38-3.09,1.13-4.52c.75-1.44,1.84-2.7,3.25-3.78,1.41-1.08,3.13-1.94,5.16-2.58,2.03-.64,4.31-.95,6.86-.95m0-2c-2.74,0-5.25.35-7.46,1.05-2.24.7-4.18,1.68-5.78,2.9-1.64,1.26-2.92,2.75-3.81,4.44-.9,1.72-1.36,3.55-1.36,5.45s.47,3.78,1.39,5.33c.88,1.48,2.11,2.79,3.65,3.89,1.44,1.06,3.21,1.98,5.23,2.71,1.94.7,4.1,1.3,6.42,1.76,1.72.32,3.14.64,4.23.95.99.28,1.79.58,2.36.88.54.32.68.54.7.56.03.04.12.19.12.52,0,.23-.05.42-.16.6-.13.22-.36.44-.68.65-.4.24-.99.47-1.73.64-.8.19-1.77.28-2.88.28-.92,0-1.82-.09-2.68-.28-.78-.16-1.46-.43-2.05-.78-.55-.32-.96-.7-1.28-1.18-.3-.45-.47-1.01-.52-1.7-.07-1.05-.94-1.86-2-1.86h-9.37c-1.1,0-2,.9-2,2,0,1.86.46,3.72,1.36,5.54.89,1.79,2.2,3.4,3.91,4.78,1.65,1.36,3.72,2.48,6.14,3.31,2.4.82,5.18,1.24,8.26,1.24,2.78,0,5.35-.31,7.63-.94,2.33-.63,4.36-1.54,6.05-2.7,1.73-1.21,3.09-2.67,4.05-4.35.98-1.73,1.48-3.63,1.48-5.67,0-2.2-.51-4.15-1.51-5.8-.96-1.58-2.31-2.94-3.99-4.04-1.61-1.03-3.5-1.87-5.65-2.51-2.05-.61-4.3-1.12-6.68-1.51-1.53-.22-2.76-.48-3.69-.77-1.05-.32-1.61-.62-1.9-.82-.03-.02-.05-.03-.08-.05-.39-.24-.5-.41-.52-.46-.1-.21-.15-.44-.15-.7,0-.24.05-.45.17-.67.13-.24.32-.45.6-.65.38-.28.88-.5,1.52-.67.73-.19,1.61-.29,2.64-.29,1.18,0,2.17.14,2.96.42.7.25,1.24.56,1.62.92.23.25.4.52.52.82.12.33.19.68.19,1.07,0,1.1.9,2,2,2h9.83c1.1,0,2-.9,2-2,0-2.08-.47-4.04-1.39-5.83-.91-1.77-2.23-3.32-3.93-4.6-1.69-1.24-3.72-2.2-6.05-2.89-2.3-.68-4.9-1.02-7.74-1.02h0Z"/>
      </g>
      <g>
        <path class="cls-1" d="m233.79,58.03c-3,0-5.72-.52-8.09-1.55-2.38-1.03-4.4-2.49-6.03-4.34-1.63-1.83-2.89-4.02-3.73-6.51-.83-2.46-1.25-5.18-1.25-8.08v-.74c0-2.88.42-5.58,1.25-8.04.84-2.48,2.1-4.68,3.74-6.51,1.62-1.84,3.63-3.3,5.98-4.35,2.35-1.04,5.06-1.57,8.06-1.57s5.72.53,8.07,1.57c2.36,1.04,4.39,2.51,6.03,4.35,1.62,1.84,2.86,4.03,3.7,6.51.83,2.46,1.25,5.17,1.25,8.04v.74c0,2.9-.42,5.62-1.25,8.08-.84,2.48-2.08,4.67-3.69,6.51-1.62,1.85-3.64,3.31-6.01,4.34-2.36,1.03-5.06,1.55-8.04,1.55Zm-.07-31.74c-1.27,0-2.36.26-3.24.78-.91.54-1.63,1.25-2.2,2.18-.6.96-1.04,2.09-1.32,3.36-.29,1.31-.44,2.73-.44,4.2v.74c0,1.52.15,2.97.44,4.29.28,1.28.72,2.4,1.32,3.33.58.92,1.32,1.66,2.22,2.18.89.52,2,.78,3.29.78s2.33-.26,3.2-.78c.89-.53,1.63-1.26,2.2-2.18.57-.93,1-2.06,1.29-3.34.29-1.33.44-2.77.44-4.29v-.74c0-1.47-.15-2.89-.44-4.2-.28-1.28-.72-2.41-1.29-3.38-.57-.92-1.29-1.63-2.2-2.16-.88-.52-1.98-.78-3.27-.78Z"/>
        <path class="cls-2" d="m233.72,17.34c2.88,0,5.43.5,7.67,1.48,2.24.99,4.14,2.36,5.69,4.1,1.53,1.74,2.7,3.8,3.5,6.17.8,2.37,1.2,4.94,1.2,7.72v.74c0,2.8-.4,5.39-1.2,7.76-.8,2.37-1.97,4.42-3.5,6.17-1.53,1.74-3.42,3.1-5.66,4.08-2.24.98-4.78,1.47-7.63,1.47s-5.44-.49-7.69-1.47c-2.25-.98-4.14-2.34-5.67-4.08-1.56-1.74-2.73-3.8-3.53-6.17-.8-2.37-1.2-4.95-1.2-7.76v-.74c0-2.78.4-5.35,1.2-7.72.8-2.37,1.98-4.42,3.53-6.17,1.53-1.74,3.41-3.11,5.64-4.1,2.23-.99,4.78-1.48,7.65-1.48m.07,31.81c1.44,0,2.67-.31,3.71-.92,1.04-.61,1.88-1.45,2.54-2.51.64-1.04,1.11-2.26,1.41-3.66.31-1.4.46-2.9.46-4.51v-.74c0-1.56-.15-3.03-.46-4.42-.31-1.39-.78-2.62-1.41-3.68-.66-1.06-1.51-1.9-2.54-2.51-1.04-.61-2.3-.92-3.78-.92s-2.71.31-3.75.92c-1.04.61-1.89,1.45-2.54,2.51-.66,1.06-1.14,2.29-1.45,3.68-.31,1.39-.46,2.86-.46,4.42v.74c0,1.6.15,3.1.46,4.51.31,1.4.79,2.62,1.45,3.66.66,1.06,1.51,1.9,2.56,2.51,1.05.61,2.31.92,3.8.92m-.07-33.81c-3.14,0-5.99.56-8.46,1.66-2.48,1.1-4.61,2.65-6.33,4.61-1.72,1.93-3.04,4.24-3.93,6.85-.87,2.56-1.31,5.38-1.31,8.36v.74c0,3.01.44,5.84,1.31,8.4.88,2.61,2.21,4.92,3.94,6.86,1.71,1.95,3.86,3.49,6.37,4.59,2.49,1.08,5.35,1.63,8.48,1.63s5.95-.55,8.44-1.63c2.5-1.09,4.64-2.64,6.36-4.6,1.7-1.93,3.01-4.24,3.89-6.85.87-2.57,1.31-5.39,1.31-8.4v-.74c0-2.98-.44-5.8-1.31-8.36-.88-2.61-2.19-4.91-3.89-6.85-1.75-1.96-3.89-3.51-6.38-4.61-2.49-1.1-5.34-1.66-8.48-1.66h0Zm.07,31.81c-1.12,0-2.06-.22-2.79-.65-.77-.45-1.38-1.05-1.87-1.84-.54-.85-.94-1.86-1.19-3.03-.27-1.26-.41-2.63-.41-4.08v-.74c0-1.4.14-2.75.41-3.99.26-1.16.66-2.19,1.19-3.05.49-.79,1.1-1.39,1.86-1.85.72-.42,1.64-.64,2.73-.64s2.04.22,2.77.64c.76.45,1.37,1.05,1.86,1.84.5.84.9,1.88,1.16,3.05.27,1.24.41,2.59.41,3.99v.74c0,1.45-.14,2.82-.41,4.08-.26,1.18-.65,2.2-1.16,3.04-.49.78-1.1,1.38-1.86,1.83-.73.43-1.61.64-2.69.64h0Z"/>
      </g>
      <g>
        <path class="cls-1" d="m262.96,57.29c-.55,0-1-.45-1-1v-7.99c0-.55.45-1,1-1h10.45V11.02h-10.45c-.55,0-1-.45-1-1V2c0-.55.45-1,1-1h21.38c.55,0,1,.45,1,1v45.3h9.96c.55,0,1,.45,1,1v7.99c0,.55-.45,1-1,1h-32.34Z"/>
        <path class="cls-2" d="m284.35,2v46.3h10.96v7.99h-32.34v-7.99h11.45V10.02h-11.45V2h21.38m0-2h-21.38c-1.1,0-2,.9-2,2v8.02c0,1.1.9,2,2,2h9.45v34.28h-9.45c-1.1,0-2,.9-2,2v7.99c0,1.1.9,2,2,2h32.34c1.1,0,2-.9,2-2v-7.99c0-1.1-.9-2-2-2h-8.96V2c0-1.1-.9-2-2-2h0Z"/>
      </g>
      <g>
        <path class="cls-1" d="m318.5,58.03c-2.09,0-4.04-.33-5.79-.98-1.8-.67-3.36-1.75-4.65-3.21-1.26-1.41-2.25-3.24-2.94-5.43-.68-2.15-1.02-4.75-1.02-7.74v-22.62c0-.55.45-1,1-1h9.83c.55,0,1,.45,1,1v22.69c0,1.48.11,2.73.31,3.72.19.91.49,1.62.89,2.14.39.52.87.87,1.49,1.09.69.24,1.57.37,2.6.37.95,0,1.81-.1,2.56-.29.73-.19,1.38-.45,1.92-.8.45-.29.86-.66,1.22-1.08.32-.38.61-.8.86-1.25v-26.58c0-.55.45-1,1-1h9.86c.55,0,1,.45,1,1v38.24c0,.55-.45,1-1,1h-8.91c-.51,0-.94-.39-.99-.9l-.31-2.93c-1.03,1.12-2.18,2.06-3.43,2.8-1.98,1.17-4.16,1.77-6.5,1.77Z"/>
        <path class="cls-2" d="m338.65,18.05v38.24h-8.91l-.57-5.37c-1.3,1.91-2.86,3.41-4.68,4.49-1.83,1.08-3.82,1.63-5.99,1.63-1.98,0-3.79-.31-5.44-.92s-3.06-1.59-4.24-2.93c-1.18-1.32-2.09-3.01-2.74-5.07-.65-2.06-.97-4.54-.97-7.44v-22.62h9.83v22.69c0,1.56.11,2.86.34,3.92.22,1.06.58,1.91,1.08,2.54.5.66,1.14,1.13,1.94,1.41.8.28,1.78.42,2.93.42,1.04,0,1.97-.11,2.81-.32.84-.21,1.57-.52,2.21-.92.54-.35,1.03-.78,1.45-1.27.42-.49.79-1.05,1.1-1.66v-26.83h9.86m0-2h-9.86c-1.1,0-2,.9-2,2v26.32c-.18.31-.39.6-.61.87-.3.35-.64.65-1.02.9-.43.27-.98.5-1.61.66-.67.17-1.45.26-2.32.26-.92,0-1.68-.1-2.27-.31-.43-.15-.75-.38-1.01-.73-.33-.42-.56-1-.72-1.76-.19-.92-.29-2.1-.29-3.51v-22.69c0-1.1-.9-2-2-2h-9.83c-1.1,0-2,.9-2,2v22.62c0,3.09.36,5.79,1.06,8.04.73,2.32,1.79,4.28,3.16,5.8,1.38,1.58,3.08,2.75,5.04,3.48,1.87.69,3.93,1.04,6.14,1.04,2.52,0,4.88-.64,7.01-1.91.75-.45,1.47-.96,2.14-1.53l.09.9c.11,1.02.97,1.79,1.99,1.79h8.91c1.1,0,2-.9,2-2V18.05c0-1.1-.9-2-2-2h0Z"/>
      </g>
      <g>
        <path class="cls-1" d="m370.75,58.03c-2.19,0-4.21-.3-6.02-.88-1.85-.6-3.45-1.55-4.76-2.83-1.32-1.24-2.36-2.87-3.07-4.81-.7-1.9-1.05-4.2-1.05-6.83v-16.39h-7.73c-.55,0-1-.45-1-1v-7.25c0-.55.45-1,1-1h7.73v-8.37c0-.55.45-1,1-1h9.83c.55,0,1,.45,1,1v8.37h13.28c.55,0,1,.45,1,1v7.25c0,.55-.45,1-1,1h-13.28v15.44c0,1.27.14,2.34.42,3.16.26.77.63,1.37,1.09,1.8.49.47,1.05.78,1.73.97.74.21,1.6.32,2.54.32.72,0,1.47-.03,2.23-.1.77-.07,1.51-.16,2.21-.27.72-.1,1.36-.2,1.97-.31.6-.11,1.11-.23,1.54-.34.08-.02.17-.03.26-.03.2,0,.39.06.55.17.24.16.4.41.44.69l.96,6.75c.06.4-.13.8-.48,1-.74.44-1.62.82-2.6,1.13-.96.31-1.98.56-3.06.76-1.06.19-2.18.35-3.32.45-1.14.11-2.29.16-3.4.16Z"/>
        <path class="cls-2" d="m366.69,8.68v9.37h14.28v7.25h-14.28v16.44c0,1.39.16,2.55.48,3.48.32.93.77,1.67,1.36,2.21.59.57,1.3.97,2.14,1.2.84.24,1.77.35,2.81.35.75,0,1.53-.04,2.31-.11.79-.07,1.55-.16,2.28-.28.71-.09,1.37-.2,2-.32.62-.12,1.16-.24,1.61-.35l.96,6.75c-.68.4-1.48.75-2.4,1.04-.92.29-1.9.54-2.93.72-1.04.19-2.12.34-3.23.44-1.12.11-2.22.16-3.3.16-2.1,0-4-.28-5.71-.83-1.71-.55-3.16-1.42-4.37-2.6-1.22-1.15-2.17-2.63-2.83-4.44-.66-1.8-.99-3.96-.99-6.49v-17.39h-8.73v-7.25h8.73v-9.37h9.83m0-2h-9.83c-1.1,0-2,.9-2,2v7.37h-6.73c-1.1,0-2,.9-2,2v7.25c0,1.1.9,2,2,2h6.73v15.39c0,2.74.37,5.16,1.11,7.17.76,2.09,1.88,3.84,3.33,5.2,1.39,1.36,3.12,2.4,5.12,3.04,1.9.62,4.03.93,6.33.93,1.14,0,2.32-.06,3.49-.17,1.17-.11,2.31-.27,3.4-.46,1.12-.2,2.19-.47,3.19-.79,1.05-.34,2-.75,2.8-1.22.7-.41,1.08-1.2.97-2.01l-.96-6.75c-.08-.57-.4-1.07-.87-1.39-.33-.22-.72-.33-1.11-.33-.17,0-.34.02-.51.07-.4.1-.89.21-1.47.32-.59.11-1.22.21-1.89.3-.02,0-.04,0-.06,0-.67.11-1.39.2-2.14.27-.73.06-1.45.1-2.14.1-.85,0-1.61-.09-2.27-.28-.52-.15-.94-.38-1.3-.72-.37-.34-.65-.81-.85-1.41-.25-.72-.37-1.67-.37-2.83v-14.44h12.28c1.1,0,2-.9,2-2v-7.25c0-1.1-.9-2-2-2h-12.28v-7.37c0-1.1-.9-2-2-2h0Z"/>
      </g>
      <g>
        <path class="cls-1" d="m395.15,57.29c-.55,0-1-.45-1-1v-7.99c0-.55.45-1,1-1h9.89v-20.23h-9.89c-.55,0-1-.45-1-1v-8.02c0-.55.45-1,1-1h20.82c.55,0,1,.45,1,1v29.26h9.36c.55,0,1,.45,1,1v7.99c0,.55-.45,1-1,1h-31.17Zm15.83-42.8c-.97,0-1.86-.15-2.67-.45-.82-.31-1.54-.75-2.12-1.31-.58-.53-1.06-1.2-1.38-1.98-.32-.77-.48-1.6-.48-2.49s.16-1.72.48-2.49c.32-.77.79-1.45,1.38-2.02.61-.55,1.31-.97,2.12-1.27.8-.3,1.7-.45,2.67-.45,2,0,3.63.59,4.84,1.74,1.23,1.17,1.85,2.68,1.85,4.49s-.62,3.32-1.85,4.49c-1.21,1.16-2.84,1.74-4.84,1.74Z"/>
        <path class="cls-2" d="m410.98,3.02c1.74,0,3.13.49,4.15,1.47,1.03.98,1.54,2.23,1.54,3.76s-.51,2.79-1.54,3.76c-1.02.98-2.41,1.47-4.15,1.47-.85,0-1.62-.13-2.32-.39-.7-.26-1.29-.62-1.79-1.1-.5-.45-.88-1-1.15-1.64-.27-.65-.41-1.35-.41-2.1s.13-1.46.41-2.1c.27-.65.65-1.21,1.15-1.68.5-.45,1.09-.8,1.79-1.06.69-.26,1.47-.39,2.32-.39m4.98,15.02v30.26h10.36v7.99h-31.17v-7.99h10.89v-22.23h-10.89v-8.02h20.82m-4.98-17.02c-1.08,0-2.1.17-3.01.51-.93.35-1.75.84-2.43,1.45-.01.01-.03.02-.04.04-.69.66-1.24,1.45-1.61,2.36-.37.89-.56,1.85-.56,2.87s.19,1.99.56,2.88c.38.91.93,1.69,1.63,2.34.69.65,1.51,1.15,2.45,1.5.91.34,1.93.51,3.01.51,2.27,0,4.13-.68,5.53-2.02,1.43-1.36,2.16-3.12,2.16-5.21s-.73-3.85-2.16-5.21c-1.4-1.34-3.27-2.02-5.53-2.02h0Zm4.98,15.02h-20.82c-1.1,0-2,.9-2,2v8.02c0,1.1.9,2,2,2h8.89v18.23h-8.89c-1.1,0-2,.9-2,2v7.99c0,1.1.9,2,2,2h31.17c1.1,0,2-.9,2-2v-7.99c0-1.1-.9-2-2-2h-8.36v-28.26c0-1.1-.9-2-2-2h0Z"/>
      </g>
      <g>
        <path class="cls-1" d="m453.16,58.03c-3,0-5.72-.52-8.09-1.55-2.38-1.03-4.4-2.49-6.03-4.34-1.63-1.83-2.89-4.02-3.73-6.51-.83-2.46-1.25-5.18-1.25-8.08v-.74c0-2.88.42-5.58,1.25-8.04.84-2.48,2.1-4.68,3.74-6.51,1.62-1.84,3.63-3.3,5.98-4.35,2.35-1.04,5.06-1.57,8.06-1.57s5.72.53,8.08,1.57c2.36,1.04,4.39,2.51,6.03,4.35,1.62,1.84,2.86,4.03,3.7,6.51.83,2.46,1.25,5.17,1.25,8.04v.74c0,2.9-.42,5.62-1.25,8.08-.84,2.48-2.08,4.67-3.7,6.51-1.62,1.85-3.64,3.31-6.01,4.34-2.36,1.03-5.06,1.55-8.04,1.55Zm-.07-31.74c-1.27,0-2.36.26-3.24.78-.89.53-1.63,1.26-2.2,2.18-.6.96-1.04,2.09-1.32,3.36-.29,1.31-.44,2.73-.44,4.2v.74c0,1.53.15,2.97.44,4.29.28,1.28.72,2.4,1.32,3.33.57.92,1.32,1.66,2.22,2.18.89.52,2,.78,3.29.78s2.33-.26,3.2-.78c.9-.53,1.62-1.25,2.21-2.18.57-.93,1-2.06,1.29-3.34.29-1.33.44-2.77.44-4.29v-.74c0-1.47-.15-2.89-.44-4.2-.28-1.28-.72-2.42-1.29-3.38-.57-.92-1.29-1.63-2.2-2.16-.88-.52-1.98-.78-3.27-.78Z"/>
        <path class="cls-2" d="m453.09,17.34c2.88,0,5.43.5,7.67,1.48,2.24.99,4.13,2.36,5.69,4.1,1.53,1.74,2.7,3.8,3.5,6.17.8,2.37,1.2,4.94,1.2,7.72v.74c0,2.8-.4,5.39-1.2,7.76-.8,2.37-1.97,4.42-3.5,6.17-1.53,1.74-3.42,3.1-5.66,4.08-2.24.98-4.78,1.47-7.63,1.47s-5.44-.49-7.69-1.47c-2.25-.98-4.14-2.34-5.67-4.08-1.56-1.74-2.73-3.8-3.54-6.17s-1.2-4.95-1.2-7.76v-.74c0-2.78.4-5.35,1.2-7.72s1.98-4.42,3.54-6.17c1.53-1.74,3.41-3.11,5.64-4.1,2.23-.99,4.78-1.48,7.65-1.48m.07,31.81c1.44,0,2.67-.31,3.71-.92s1.88-1.45,2.54-2.51c.64-1.04,1.11-2.26,1.41-3.66.31-1.4.46-2.9.46-4.51v-.74c0-1.56-.15-3.03-.46-4.42-.31-1.39-.78-2.62-1.41-3.68-.66-1.06-1.51-1.9-2.54-2.51-1.04-.61-2.3-.92-3.78-.92s-2.71.31-3.75.92c-1.04.61-1.89,1.45-2.54,2.51-.66,1.06-1.14,2.29-1.45,3.68-.31,1.39-.46,2.86-.46,4.42v.74c0,1.6.15,3.1.46,4.51.31,1.4.79,2.62,1.45,3.66.66,1.06,1.51,1.9,2.56,2.51,1.05.61,2.32.92,3.8.92m-.07-33.81c-3.14,0-5.99.56-8.46,1.66-2.48,1.1-4.61,2.65-6.33,4.61-1.72,1.93-3.04,4.23-3.93,6.85-.87,2.56-1.31,5.38-1.31,8.36v.74c0,3.01.44,5.84,1.31,8.4.88,2.61,2.21,4.92,3.94,6.86,1.71,1.95,3.86,3.49,6.37,4.59,2.49,1.08,5.35,1.63,8.48,1.63s5.95-.55,8.43-1.63c2.5-1.09,4.64-2.64,6.36-4.6,1.7-1.93,3.01-4.24,3.89-6.85.87-2.56,1.31-5.39,1.31-8.4v-.74c0-2.99-.44-5.8-1.31-8.36-.88-2.61-2.19-4.91-3.89-6.85-1.75-1.96-3.9-3.51-6.38-4.61-2.49-1.1-5.34-1.66-8.48-1.66h0Zm.07,31.81c-1.12,0-2.06-.22-2.79-.65-.77-.45-1.38-1.05-1.87-1.84-.54-.85-.94-1.86-1.19-3.03-.27-1.25-.41-2.63-.41-4.08v-.74c0-1.41.14-2.75.41-3.99.26-1.16.66-2.19,1.19-3.05.49-.79,1.1-1.39,1.87-1.85.72-.42,1.64-.64,2.73-.64s2.04.22,2.77.64c.76.45,1.37,1.05,1.86,1.84.5.84.9,1.88,1.16,3.05.27,1.24.41,2.59.41,3.99v.74c0,1.45-.14,2.82-.41,4.08-.26,1.18-.65,2.2-1.16,3.04-.49.78-1.1,1.38-1.86,1.83-.73.43-1.61.64-2.69.64h0Z"/>
      </g>
      <g>
        <path class="cls-1" d="m504.6,57.29c-.55,0-1-.45-1-1v-23.4c0-1.39-.15-2.53-.46-3.4-.28-.81-.68-1.45-1.19-1.9-.52-.46-1.13-.77-1.88-.96-.81-.2-1.75-.31-2.8-.31-.85,0-1.64.1-2.34.28-.67.18-1.28.45-1.79.81-.46.29-.85.6-1.18.96-.29.31-.57.65-.82,1.03v26.88c0,.55-.45,1-1,1h-9.86c-.55,0-1-.45-1-1V18.05c0-.55.45-1,1-1h8.91c.51,0,.94.38.99.89l.34,2.96c.06-.07.13-.13.19-.19.62-.62,1.29-1.19,2-1.7,1.22-.86,2.56-1.52,3.99-1.98,1.43-.45,2.97-.68,4.58-.68,2.04,0,3.93.3,5.63.91,1.74.62,3.28,1.6,4.56,2.94,1.26,1.36,2.24,3.1,2.93,5.17.68,2.04,1.02,4.53,1.02,7.4v23.54c0,.55-.45,1-1,1h-9.83Z"/>
        <path class="cls-2" d="m501.28,17.34c1.93,0,3.7.28,5.3.85,1.6.57,2.99,1.46,4.17,2.69,1.15,1.25,2.06,2.85,2.7,4.79.65,1.94.97,4.31.97,7.09v23.54h-9.83v-23.4c0-1.51-.17-2.75-.51-3.73-.34-.98-.83-1.75-1.47-2.32-.64-.57-1.4-.96-2.3-1.18-.9-.22-1.91-.34-3.04-.34-.94,0-1.81.11-2.6.32-.79.21-1.49.53-2.1.95-.49.31-.94.67-1.34,1.1-.4.42-.77.9-1.1,1.41v27.18h-9.86V18.05h8.91l.6,5.3c.5-.71,1.04-1.35,1.63-1.94s1.21-1.12,1.87-1.59c1.13-.8,2.37-1.41,3.71-1.84,1.34-.42,2.77-.64,4.28-.64m0-2c-1.71,0-3.35.25-4.88.73-1.53.48-2.97,1.19-4.26,2.11-.29.21-.57.42-.84.64l-.11-1c-.11-1.01-.97-1.77-1.99-1.77h-8.91c-1.1,0-2,.9-2,2v38.24c0,1.1.9,2,2,2h9.86c1.1,0,2-.9,2-2v-26.56c.17-.24.36-.46.55-.66.28-.3.6-.55.94-.77.03-.02.06-.04.08-.06.43-.3.91-.51,1.48-.67.62-.17,1.32-.25,2.08-.25.96,0,1.82.09,2.56.28.58.15,1.06.39,1.45.74.38.33.68.83.91,1.48.26.76.4,1.79.4,3.07v23.4c0,1.1.9,2,2,2h9.83c1.1,0,2-.9,2-2v-23.54c0-2.98-.36-5.58-1.07-7.72-.74-2.21-1.79-4.06-3.13-5.51-1.42-1.48-3.08-2.55-4.97-3.21-1.81-.64-3.82-.96-5.97-.96h0Z"/>
      </g>
      <g>
        <path class="cls-1" d="m541.16,58.03c-2.97,0-5.64-.4-7.94-1.18-2.31-.79-4.27-1.85-5.84-3.14-1.58-1.28-2.81-2.78-3.63-4.44-.83-1.67-1.25-3.39-1.25-5.09,0-.55.45-1,1-1h9.37c.53,0,.96.41,1,.93.06.87.28,1.58.68,2.18.41.62.93,1.1,1.58,1.47.7.42,1.49.73,2.38.91.93.2,1.9.3,2.89.3,1.19,0,2.24-.1,3.11-.31.84-.2,1.54-.46,2.05-.78.44-.28.78-.61.99-.97.2-.34.3-.7.3-1.11s-.09-.75-.26-1.04c-.12-.21-.42-.54-1.08-.93-.6-.32-1.48-.65-2.56-.96-1.12-.32-2.56-.64-4.29-.97-2.29-.46-4.4-1.04-6.29-1.72-1.93-.7-3.62-1.57-5-2.59-1.42-1.01-2.55-2.22-3.36-3.58-.83-1.4-1.25-3.02-1.25-4.82s.42-3.42,1.25-4.99c.82-1.56,2.01-2.94,3.53-4.11,1.5-1.15,3.34-2.07,5.47-2.74,2.11-.66,4.52-1,7.16-1s5.25.33,7.46.98c2.22.66,4.14,1.57,5.71,2.71,1.59,1.21,2.81,2.64,3.66,4.27.85,1.64,1.28,3.45,1.28,5.37,0,.55-.45,1-1,1h-9.83c-.55,0-1-.45-1-1,0-.51-.08-.99-.25-1.43-.17-.43-.41-.82-.75-1.17-.46-.46-1.14-.86-1.99-1.16-.89-.31-2-.47-3.29-.47-1.11,0-2.08.11-2.89.32-.77.2-1.39.48-1.84.82-.41.3-.7.62-.9,1-.19.36-.29.73-.29,1.14s.08.79.25,1.13c.15.31.45.6.9.88.54.37,1.27.69,2.21.97.98.3,2.27.57,3.81.8,2.36.39,4.56.88,6.57,1.48,2.06.61,3.87,1.41,5.38,2.38,1.57,1.03,2.8,2.28,3.69,3.73.91,1.48,1.37,3.26,1.37,5.27,0,1.87-.46,3.61-1.35,5.18-.88,1.55-2.14,2.9-3.74,4.02-1.6,1.1-3.53,1.96-5.75,2.57-2.2.6-4.68.9-7.37.9Z"/>
        <path class="cls-2" d="m541.12,17.34c2.66,0,5.05.31,7.17.94,2.12.62,3.92,1.48,5.41,2.56,1.46,1.11,2.58,2.42,3.36,3.92.78,1.51,1.17,3.15,1.17,4.91h-9.83c0-.64-.11-1.23-.32-1.78s-.53-1.05-.96-1.5c-.59-.59-1.38-1.06-2.39-1.41-1-.35-2.21-.53-3.62-.53-1.2,0-2.25.12-3.15.35-.9.24-1.63.57-2.19.99-.52.38-.91.82-1.18,1.33-.27.51-.41,1.04-.41,1.61s.12,1.09.35,1.57c.23.48.66.91,1.27,1.29.59.4,1.4.76,2.44,1.08,1.04.32,2.36.6,3.96.83,2.31.38,4.45.86,6.43,1.45,1.98.59,3.69,1.34,5.12,2.26,1.44.94,2.56,2.08,3.38,3.41.81,1.33,1.22,2.92,1.22,4.75,0,1.7-.41,3.26-1.22,4.68-.81,1.43-1.96,2.66-3.45,3.69-1.51,1.04-3.32,1.84-5.44,2.42-2.12.58-4.49.87-7.1.87-2.88,0-5.41-.38-7.62-1.13s-4.05-1.74-5.53-2.97c-1.48-1.2-2.61-2.57-3.38-4.12-.77-1.54-1.15-3.09-1.15-4.65h9.37c.07,1.04.35,1.93.85,2.67.5.74,1.13,1.34,1.91,1.79.78.47,1.67.81,2.67,1.02,1,.21,2.03.32,3.09.32,1.27,0,2.39-.11,3.34-.34.95-.22,1.74-.52,2.35-.9.59-.38,1.03-.81,1.33-1.31.29-.5.44-1.04.44-1.63s-.14-1.11-.41-1.56c-.27-.45-.75-.87-1.43-1.27-.71-.38-1.64-.73-2.79-1.06-1.15-.33-2.62-.66-4.38-.99-2.24-.45-4.28-1.01-6.13-1.68-1.85-.67-3.43-1.49-4.75-2.46-1.32-.94-2.35-2.04-3.09-3.29-.74-1.25-1.11-2.69-1.11-4.31s.38-3.09,1.13-4.52c.75-1.44,1.84-2.7,3.25-3.78,1.41-1.08,3.13-1.94,5.16-2.58,2.03-.64,4.31-.95,6.86-.95m0-2c-2.74,0-5.24.35-7.46,1.05-2.24.7-4.18,1.68-5.78,2.9-1.64,1.26-2.92,2.75-3.81,4.44-.9,1.72-1.36,3.55-1.36,5.45s.47,3.78,1.39,5.33c.88,1.48,2.11,2.79,3.65,3.89,1.45,1.06,3.21,1.98,5.23,2.71,1.94.7,4.1,1.3,6.42,1.76,1.73.32,3.14.64,4.23.95.99.28,1.79.58,2.37.88.54.32.68.54.7.56.03.04.12.19.12.52,0,.23-.05.42-.16.6-.13.22-.36.44-.68.65-.4.24-.99.47-1.73.64-.8.19-1.77.28-2.88.28-.92,0-1.82-.09-2.68-.27-.78-.16-1.46-.43-2.05-.78-.55-.32-.96-.7-1.28-1.18-.3-.45-.47-1.01-.52-1.7-.07-1.05-.94-1.86-2-1.86h-9.37c-1.1,0-2,.9-2,2,0,1.86.46,3.72,1.36,5.54.89,1.79,2.21,3.4,3.91,4.78,1.65,1.36,3.72,2.48,6.14,3.31,2.4.82,5.18,1.24,8.26,1.24,2.78,0,5.35-.31,7.63-.94,2.33-.63,4.36-1.54,6.05-2.7,1.73-1.21,3.09-2.67,4.05-4.35.98-1.72,1.48-3.63,1.48-5.67,0-2.2-.51-4.15-1.51-5.8-.96-1.58-2.3-2.94-3.98-4.04-1.61-1.03-3.5-1.87-5.65-2.51-2.05-.61-4.3-1.12-6.68-1.51-1.53-.22-2.76-.48-3.69-.77-1.05-.32-1.61-.62-1.9-.82-.03-.02-.05-.03-.08-.05-.31-.19-.47-.36-.52-.46-.1-.21-.15-.44-.15-.7,0-.24.05-.45.17-.66.13-.24.32-.45.6-.65.38-.28.88-.5,1.52-.67.73-.19,1.61-.29,2.64-.29,1.18,0,2.17.14,2.96.42.7.25,1.25.56,1.62.92.23.25.41.52.52.82.12.33.19.68.19,1.07,0,1.1.9,2,2,2h9.83c.53,0,1.04-.21,1.41-.59.38-.38.59-.88.59-1.41,0-2.08-.47-4.04-1.39-5.83-.91-1.77-2.23-3.32-3.93-4.6-1.69-1.24-3.72-2.2-6.05-2.89-2.3-.68-4.9-1.02-7.74-1.02h0Z"/>
      </g>
    </g>
  </g>
</svg>