<?xml version="1.0" encoding="UTF-8"?>
<svg id="_Слой_2" data-name="Слой 2" xmlns="http://www.w3.org/2000/svg" viewBox="0 0 540.62 60.61">
  <defs>
    <style>
      .cls-1 {
        fill: #fff;
      }

      .cls-2 {
        fill: #1d1d1b;
      }
    </style>
  </defs>
  <g id="_Слой_1-2" data-name="Слой 1">
    <g>
      <g>
        <path class="cls-1" d="m20.88,56.03c-2.96,0-5.68-.49-8.11-1.47-2.43-.98-4.54-2.33-6.29-4.03-1.75-1.68-3.12-3.69-4.06-5.98-.94-2.28-1.42-4.76-1.42-7.35v-1.36c0-2.93.47-5.64,1.39-8.08.93-2.44,2.25-4.58,3.92-6.35,1.68-1.77,3.69-3.17,5.99-4.15,2.3-.98,4.82-1.48,7.52-1.48s5.3.47,7.49,1.39c2.2.93,4.1,2.25,5.65,3.94,1.52,1.69,2.69,3.74,3.48,6.1.78,2.33,1.18,4.93,1.18,7.73v4.02c0,.55-.45,1-1,1H12.86c.24.87.53,1.6.85,2.18.44.79,1.04,1.52,1.79,2.17.77.67,1.66,1.19,2.66,1.56,1,.37,2.11.55,3.3.55,1.73,0,3.42-.33,5.05-.98,1.57-.63,2.87-1.59,3.84-2.85.18-.23.45-.37.75-.39.02,0,.03,0,.04,0,.28,0,.54.12.73.32l4.74,5.11c.32.35.36.87.08,1.26-1.29,1.83-3.33,3.49-6.07,4.94-2.75,1.46-6.02,2.2-9.74,2.2Zm5.44-24.6c-.03-.77-.18-1.51-.47-2.2-.31-.76-.75-1.44-1.29-2-.53-.53-1.2-.96-1.99-1.29-.8-.32-1.74-.49-2.81-.49-.93,0-1.78.16-2.54.48-.75.32-1.42.78-1.98,1.38-.61.63-1.12,1.39-1.53,2.26-.26.57-.49,1.19-.67,1.85h13.28Z"/>
        <path class="cls-2" d="m19.82,16.79c2.66,0,5.03.44,7.11,1.31,2.08.87,3.85,2.11,5.3,3.7,1.43,1.59,2.52,3.5,3.27,5.74.75,2.24,1.12,4.71,1.12,7.41v4.02H11.61v.1c.32,1.48.73,2.66,1.23,3.56.5.9,1.17,1.71,2.01,2.44.86.75,1.85,1.33,2.97,1.74,1.11.41,2.33.61,3.65.61,1.86,0,3.67-.35,5.42-1.06,1.75-.7,3.17-1.76,4.26-3.17l4.74,5.11c-1.2,1.7-3.11,3.25-5.73,4.64-2.61,1.39-5.7,2.08-9.27,2.08-2.84,0-5.42-.47-7.74-1.4s-4.31-2.2-5.96-3.82c-1.66-1.59-2.94-3.47-3.83-5.64-.9-2.17-1.35-4.49-1.35-6.97v-1.36c0-2.82.44-5.39,1.33-7.72.89-2.33,2.12-4.33,3.71-6.02,1.59-1.68,3.48-2.99,5.66-3.92,2.18-.93,4.56-1.4,7.12-1.4m-8.04,15.64h15.54v-.75c0-1-.18-1.94-.55-2.83-.36-.89-.86-1.66-1.5-2.32-.64-.64-1.41-1.14-2.33-1.52-.92-.37-1.98-.56-3.19-.56-1.07,0-2.04.19-2.93.56-.89.37-1.66.91-2.32,1.62-.68.7-1.25,1.55-1.7,2.52-.45.98-.8,2.07-1.02,3.27m8.04-17.64c-2.83,0-5.49.52-7.91,1.56-2.42,1.04-4.55,2.51-6.33,4.38-1.77,1.87-3.16,4.11-4.13,6.68-.97,2.55-1.46,5.38-1.46,8.43v1.36c0,2.73.5,5.33,1.5,7.73,1,2.42,2.45,4.54,4.3,6.32,1.83,1.78,4.05,3.2,6.6,4.23,2.54,1.02,5.4,1.54,8.48,1.54,3.88,0,7.32-.78,10.21-2.31,2.88-1.53,5.04-3.29,6.42-5.25.55-.77.48-1.82-.17-2.51l-4.74-5.11c-.38-.41-.91-.64-1.47-.64-.03,0-.06,0-.09,0-.59.03-1.13.31-1.49.77-.88,1.13-2,1.96-3.43,2.54-1.5.61-3.07.91-4.67.91-1.08,0-2.07-.17-2.96-.49-.88-.32-1.67-.78-2.34-1.37-.66-.57-1.19-1.21-1.57-1.9-.11-.21-.23-.44-.33-.69h22.37c1.1,0,2-.9,2-2v-4.02c0-2.91-.41-5.62-1.23-8.05-.83-2.49-2.07-4.66-3.68-6.45-1.65-1.81-3.67-3.22-6.01-4.2-2.32-.97-4.97-1.47-7.88-1.47h0Zm-5.39,15.64c.06-.15.12-.29.19-.43.36-.77.8-1.43,1.33-1.97.49-.53,1.03-.9,1.66-1.17.63-.27,1.36-.4,2.15-.4.94,0,1.76.14,2.43.41.68.28,1.22.63,1.67,1.08.44.45.79,1.01,1.06,1.66.11.27.2.54.26.82h-10.76Z"/>
      </g>
      <g>
        <path class="cls-1" d="m68.32,55.35c-.55,0-1-.45-1-1v-22.56c0-1.34-.15-2.43-.44-3.27-.27-.78-.65-1.39-1.13-1.81-.5-.44-1.08-.74-1.79-.92-.78-.2-1.68-.29-2.69-.29-.82,0-1.57.09-2.25.27-.65.17-1.23.44-1.72.78-.44.28-.81.58-1.14.92-.28.3-.54.62-.78.98v25.91c0,.55-.45,1-1,1h-9.51c-.55,0-1-.45-1-1V17.47c0-.55.45-1,1-1h8.59c.51,0,.94.38.99.89l.31,2.78s.09-.09.13-.13c.6-.6,1.25-1.16,1.93-1.64,1.17-.83,2.47-1.47,3.86-1.91,1.39-.44,2.88-.66,4.43-.66,1.97,0,3.8.29,5.45.88,1.69.6,3.17,1.55,4.41,2.84,1.22,1.32,2.17,2.99,2.83,4.99.66,1.97.99,4.37.99,7.15v22.7c0,.55-.45,1-1,1h-9.47Z"/>
        <path class="cls-2" d="m65.12,16.79c1.86,0,3.57.27,5.11.82,1.55.55,2.89,1.41,4.02,2.59,1.11,1.2,1.98,2.74,2.61,4.62.62,1.87.94,4.15.94,6.83v22.7h-9.47v-22.56c0-1.45-.16-2.65-.49-3.6-.33-.94-.8-1.69-1.41-2.23-.61-.55-1.35-.93-2.22-1.14s-1.84-.32-2.93-.32c-.91,0-1.74.1-2.51.31-.76.2-1.44.51-2.03.92-.48.3-.91.65-1.3,1.06-.39.41-.74.86-1.06,1.36v26.21h-9.51V17.47h8.59l.58,5.11c.48-.68,1-1.31,1.57-1.87.57-.57,1.17-1.08,1.81-1.53,1.09-.77,2.28-1.36,3.58-1.77,1.3-.41,2.67-.61,4.12-.61m0-2c-1.65,0-3.24.24-4.73.71-1.49.47-2.88,1.16-4.13,2.05-.24.17-.48.35-.72.54l-.1-.84c-.11-1.01-.97-1.77-1.99-1.77h-8.59c-1.1,0-2,.9-2,2v36.88c0,1.1.9,2,2,2h9.51c1.1,0,2-.9,2-2v-25.59c.16-.22.33-.42.51-.61.27-.28.57-.53.89-.73.03-.02.06-.04.09-.06.4-.28.87-.49,1.41-.63.59-.16,1.26-.24,1.99-.24.92,0,1.75.09,2.45.26.55.14,1,.37,1.37.7.35.31.64.78.86,1.4.25.73.38,1.71.38,2.94v22.56c0,1.1.9,2,2,2h9.47c1.1,0,2-.9,2-2v-22.7c0-2.88-.35-5.4-1.04-7.47-.71-2.14-1.73-3.93-3.04-5.34-1.38-1.43-2.99-2.47-4.82-3.12-1.75-.62-3.7-.93-5.78-.93h0Z"/>
      </g>
      <g>
        <path class="cls-1" d="m89.45,59.61c-.32,0-.63-.16-.81-.42-.19-.26-.24-.6-.13-.91L107.08,4.4c.14-.4.52-.67.95-.67h8.83c.32,0,.63.16.81.42.19.26.24.6.13.91l-18.57,53.88c-.14.4-.52.67-.95.67h-8.83Z"/>
        <path class="cls-2" d="m116.86,4.73l-18.57,53.88h-8.83L108.03,4.73h8.83m0-2h-8.83c-.85,0-1.61.54-1.89,1.35l-18.57,53.88c-.21.61-.11,1.29.26,1.81.38.53.98.84,1.63.84h8.83c.85,0,1.61-.54,1.89-1.35L118.75,5.38c.21-.61.11-1.29-.26-1.81-.38-.53-.98-.84-1.63-.84h0Zm0,4h0,0Z"/>
      </g>
      <g>
        <path class="cls-1" d="m131.34,59.61c-.32,0-.63-.16-.81-.42-.19-.26-.24-.6-.13-.91l18.57-53.88c.14-.4.52-.67.95-.67h8.83c.32,0,.63.16.81.42.19.26.24.6.13.91l-18.57,53.88c-.14.4-.52.67-.95.67h-8.83Z"/>
        <path class="cls-2" d="m158.74,4.73l-18.57,53.88h-8.83l18.57-53.88h8.83m0-2h-8.83c-.85,0-1.61.54-1.89,1.35l-18.57,53.88c-.21.61-.11,1.29.26,1.81.38.53.98.84,1.63.84h8.83c.85,0,1.61-.54,1.89-1.35l18.57-53.88c.21-.61.11-1.29-.26-1.81-.38-.53-.98-.84-1.63-.84h0Zm0,4h0,0Z"/>
      </g>
      <g>
        <path class="cls-1" d="m186.93,56.07c-2.87,0-5.45-.39-7.67-1.14-2.23-.76-4.13-1.79-5.65-3.04-1.53-1.24-2.71-2.69-3.51-4.3-.8-1.62-1.21-3.28-1.21-4.93,0-.55.45-1,1-1h9.03c.53,0,.96.41,1,.93.06.82.28,1.52.65,2.09.39.59.89,1.05,1.51,1.41.67.41,1.43.7,2.28.88.89.19,1.83.29,2.77.29,1.14,0,2.15-.1,2.99-.3.81-.19,1.47-.44,1.97-.75.42-.27.74-.58.94-.92.19-.32.29-.67.29-1.06s-.08-.71-.25-.98c-.12-.2-.39-.51-1.03-.88-.58-.31-1.42-.63-2.46-.92-1.08-.31-2.47-.62-4.14-.93-2.21-.44-4.25-1-6.07-1.66-1.86-.68-3.49-1.52-4.83-2.5-1.37-.98-2.47-2.15-3.25-3.47-.81-1.36-1.21-2.93-1.21-4.67s.41-3.3,1.2-4.83c.79-1.51,1.94-2.85,3.41-3.98,1.45-1.11,3.23-2,5.29-2.65,2.04-.64,4.37-.97,6.91-.97s5.08.32,7.2.94c2.15.63,4,1.51,5.52,2.62,1.54,1.17,2.72,2.55,3.54,4.13.82,1.59,1.24,3.34,1.24,5.2,0,.55-.45,1-1,1h-9.48c-.55,0-1-.45-1-1,0-.49-.08-.95-.24-1.36-.16-.41-.4-.78-.71-1.12-.44-.44-1.09-.82-1.91-1.11-.85-.3-1.92-.45-3.16-.45-1.07,0-2,.1-2.78.31-.73.19-1.33.46-1.77.79-.39.29-.67.59-.86.95-.18.34-.27.7-.27,1.08s.08.75.24,1.08c.14.29.43.57.85.83.52.35,1.22.66,2.12.94.95.29,2.18.55,3.67.77,2.27.37,4.4.85,6.34,1.43,1.99.59,3.74,1.36,5.2,2.3,1.51.99,2.71,2.21,3.57,3.61.88,1.44,1.32,3.16,1.32,5.11,0,1.8-.44,3.49-1.31,5.01-.85,1.5-2.07,2.81-3.62,3.89-1.55,1.06-3.41,1.9-5.56,2.48-2.12.58-4.51.87-7.11.87Z"/>
        <path class="cls-2" d="m186.89,16.79c2.57,0,4.87.3,6.92.9s3.78,1.43,5.21,2.47c1.41,1.07,2.49,2.33,3.24,3.78.75,1.45,1.12,3.03,1.12,4.74h-9.47c0-.61-.1-1.19-.31-1.72-.2-.53-.51-1.02-.92-1.45-.57-.57-1.33-1.02-2.3-1.36s-2.13-.51-3.49-.51c-1.16,0-2.17.11-3.03.34-.86.23-1.57.55-2.11.95-.5.36-.88.79-1.14,1.28-.26.49-.39,1.01-.39,1.55s.11,1.05.34,1.52c.23.47.64.88,1.23,1.24.57.39,1.35.73,2.35,1.04,1,.31,2.27.57,3.82.8,2.23.36,4.29.83,6.2,1.4s3.56,1.3,4.94,2.18c1.39.91,2.47,2.01,3.25,3.29.78,1.28,1.18,2.81,1.18,4.58,0,1.64-.39,3.14-1.18,4.52-.78,1.37-1.89,2.56-3.32,3.56-1.45,1-3.2,1.78-5.25,2.33-2.04.56-4.33.83-6.85.83-2.77,0-5.22-.36-7.34-1.09s-3.9-1.68-5.33-2.86c-1.43-1.16-2.52-2.48-3.25-3.97-.74-1.49-1.11-2.98-1.11-4.48h9.03c.07,1,.34,1.86.82,2.57.48.72,1.09,1.29,1.84,1.72.75.45,1.61.78,2.57.99.97.2,1.96.31,2.98.31,1.23,0,2.3-.11,3.22-.32s1.68-.51,2.27-.87c.57-.36.99-.78,1.28-1.26s.43-1,.43-1.57-.13-1.07-.39-1.5c-.26-.43-.72-.84-1.38-1.23-.68-.36-1.58-.7-2.69-1.02s-2.52-.64-4.23-.95c-2.16-.43-4.13-.97-5.91-1.62s-3.31-1.44-4.58-2.37c-1.27-.91-2.27-1.97-2.98-3.17s-1.07-2.59-1.07-4.16.36-2.98,1.09-4.36,1.77-2.6,3.14-3.65c1.36-1.05,3.02-1.87,4.98-2.49,1.95-.61,4.16-.92,6.61-.92m0-2c-2.65,0-5.07.34-7.21,1.01-2.17.68-4.05,1.63-5.59,2.81-1.59,1.22-2.83,2.67-3.69,4.3-.88,1.67-1.32,3.45-1.32,5.29s.46,3.67,1.35,5.18c.85,1.44,2.05,2.71,3.54,3.78,1.4,1.03,3.11,1.91,5.06,2.62,1.87.68,3.96,1.25,6.2,1.7,1.66.31,3.02.62,4.07.92.95.27,1.71.56,2.26.85.52.31.64.51.65.52.03.04.1.17.1.46,0,.21-.04.38-.14.54-.12.21-.34.41-.64.6-.37.23-.94.44-1.65.61-.77.18-1.7.27-2.76.27-.88,0-1.74-.09-2.57-.26-.74-.16-1.4-.41-1.95-.74-.52-.3-.91-.66-1.21-1.12-.28-.42-.44-.95-.49-1.6-.07-1.05-.94-1.86-2-1.86h-9.03c-1.1,0-2,.9-2,2,0,1.8.44,3.61,1.32,5.37.86,1.74,2.14,3.3,3.79,4.64,1.6,1.32,3.6,2.4,5.94,3.2,2.32.8,5.01,1.2,7.99,1.2,2.69,0,5.17-.3,7.38-.91,2.25-.61,4.22-1.49,5.86-2.62,1.68-1.17,3-2.59,3.93-4.22.95-1.67,1.44-3.53,1.44-5.51,0-2.14-.49-4.03-1.47-5.63-.94-1.53-2.24-2.85-3.87-3.92-1.56-1-3.39-1.81-5.47-2.43-1.98-.59-4.15-1.08-6.45-1.45-1.47-.22-2.65-.46-3.55-.74-1-.31-1.54-.59-1.81-.78-.03-.02-.05-.03-.08-.05-.37-.23-.46-.39-.48-.42-.09-.19-.14-.4-.14-.64,0-.22.05-.41.16-.61.12-.22.3-.42.55-.6.36-.27.84-.48,1.45-.64.69-.18,1.54-.27,2.52-.27,1.13,0,2.08.13,2.83.4.67.23,1.18.53,1.53.87.22.24.38.49.49.77.12.31.17.64.17,1.01,0,1.1.9,2,2,2h9.47c1.1,0,2-.9,2-2,0-2.02-.45-3.92-1.35-5.65-.88-1.71-2.17-3.22-3.81-4.46-1.64-1.2-3.6-2.13-5.86-2.8-2.22-.65-4.74-.98-7.48-.98h0Z"/>
      </g>
      <g>
        <path class="cls-1" d="m228.58,56.07c-2.9,0-5.52-.5-7.81-1.5-2.3-1-4.26-2.41-5.82-4.19-1.58-1.77-2.79-3.89-3.6-6.29-.8-2.38-1.21-5-1.21-7.8v-.72c0-2.78.41-5.39,1.21-7.77.81-2.4,2.03-4.52,3.61-6.29,1.56-1.78,3.51-3.19,5.78-4.2,2.27-1.01,4.89-1.52,7.79-1.52s5.52.51,7.8,1.52c2.28,1.01,4.24,2.42,5.83,4.2,1.56,1.78,2.76,3.89,3.58,6.29.8,2.38,1.21,4.99,1.21,7.77v.72c0,2.8-.41,5.43-1.21,7.8-.81,2.4-2.01,4.51-3.57,6.29-1.57,1.78-3.52,3.19-5.8,4.19-2.28.99-4.89,1.5-7.76,1.5Zm-.07-30.61c-1.22,0-2.27.25-3.1.75-.85.5-1.57,1.21-2.11,2.09-.57.92-1,2.01-1.27,3.23-.28,1.26-.42,2.62-.42,4.04v.72c0,1.47.14,2.86.42,4.13.27,1.23.69,2.31,1.26,3.2.56.9,1.25,1.58,2.13,2.09.85.5,1.91.75,3.16.75s2.23-.25,3.07-.75c.85-.51,1.57-1.21,2.11-2.09.55-.89.96-1.98,1.24-3.21.28-1.28.42-2.67.42-4.13v-.72c0-1.42-.14-2.78-.42-4.04-.27-1.23-.69-2.32-1.24-3.25-.54-.87-1.25-1.57-2.1-2.07-.84-.5-1.9-.75-3.14-.75Z"/>
        <path class="cls-2" d="m228.51,16.79c2.77,0,5.24.48,7.4,1.43,2.16.95,3.99,2.27,5.49,3.95,1.48,1.68,2.6,3.66,3.37,5.95.77,2.28,1.16,4.77,1.16,7.45v.72c0,2.7-.39,5.2-1.16,7.48-.77,2.28-1.9,4.27-3.37,5.95s-3.29,2.99-5.45,3.94c-2.16.94-4.61,1.41-7.36,1.41s-5.24-.47-7.41-1.41-3.99-2.26-5.47-3.94c-1.5-1.68-2.64-3.66-3.41-5.95-.77-2.28-1.16-4.78-1.16-7.48v-.72c0-2.68.39-5.16,1.16-7.45.77-2.28,1.91-4.27,3.41-5.95,1.48-1.68,3.29-3,5.44-3.95s4.61-1.43,7.38-1.43m.07,30.67c1.39,0,2.58-.3,3.58-.89,1-.59,1.82-1.4,2.45-2.42.61-1,1.07-2.18,1.36-3.53.3-1.35.44-2.8.44-4.35v-.72c0-1.5-.15-2.92-.44-4.26s-.75-2.52-1.36-3.54c-.64-1.02-1.45-1.83-2.45-2.42-1-.59-2.22-.89-3.65-.89s-2.61.3-3.61.89c-1,.59-1.82,1.4-2.45,2.42-.64,1.02-1.1,2.2-1.4,3.54-.3,1.34-.44,2.76-.44,4.26v.72c0,1.55.15,2.99.44,4.35.3,1.35.76,2.53,1.4,3.53.64,1.02,1.46,1.83,2.47,2.42s2.23.89,3.66.89m-.07-32.67c-3.04,0-5.8.54-8.19,1.6-2.4,1.07-4.46,2.57-6.13,4.46-1.66,1.86-2.94,4.1-3.8,6.63-.84,2.48-1.26,5.2-1.26,8.09v.72c0,2.91.43,5.64,1.26,8.12.86,2.53,2.14,4.76,3.81,6.64,1.66,1.89,3.73,3.38,6.17,4.44,2.41,1.05,5.17,1.58,8.21,1.58s5.76-.53,8.16-1.58c2.42-1.06,4.49-2.55,6.16-4.45,1.65-1.87,2.91-4.1,3.77-6.63.84-2.48,1.26-5.21,1.26-8.12v-.72c0-2.89-.43-5.61-1.26-8.09-.85-2.52-2.12-4.75-3.77-6.63-1.69-1.9-3.77-3.4-6.18-4.46-2.4-1.06-5.17-1.6-8.2-1.6h0Zm.07,30.67c-1.07,0-1.96-.21-2.65-.61-.73-.43-1.32-1-1.78-1.75-.52-.81-.9-1.78-1.14-2.9-.26-1.21-.4-2.52-.4-3.92v-.72c0-1.35.13-2.64.4-3.83.25-1.11.63-2.09,1.14-2.92.47-.75,1.05-1.33,1.77-1.75.68-.4,1.56-.61,2.6-.61s1.95.2,2.63.61c.73.43,1.31,1,1.77,1.75.48.8.86,1.8,1.11,2.92.26,1.19.4,2.48.4,3.83v.72c0,1.39-.13,2.71-.4,3.92-.25,1.13-.62,2.1-1.11,2.91-.46.74-1.04,1.32-1.77,1.74-.69.41-1.53.61-2.56.61h0Z"/>
      </g>
      <g>
        <path class="cls-1" d="m256.28,55.35c-.55,0-1-.45-1-1v-7.7c0-.55.45-1,1-1h10.04V10.74h-10.04c-.55,0-1-.45-1-1V2c0-.55.45-1,1-1h20.62c.55,0,1,.45,1,1v43.65h9.57c.55,0,1,.45,1,1v7.7c0,.55-.45,1-1,1h-31.18Z"/>
        <path class="cls-2" d="m276.9,2v44.65h10.57v7.7h-31.18v-7.7h11.04V9.74h-11.04V2h20.62m0-2h-20.62c-1.1,0-2,.9-2,2v7.74c0,1.1.9,2,2,2h9.04v32.91h-9.04c-1.1,0-2,.9-2,2v7.7c0,1.1.9,2,2,2h31.18c1.1,0,2-.9,2-2v-7.7c0-1.1-.9-2-2-2h-8.57V2c0-1.1-.9-2-2-2h0Z"/>
      </g>
      <g>
        <path class="cls-1" d="m309.42,56.07c-2.02,0-3.9-.32-5.6-.95-1.74-.65-3.25-1.69-4.49-3.11-1.22-1.37-2.18-3.14-2.84-5.25-.65-2.08-.98-4.59-.98-7.47v-21.81c0-.55.45-1,1-1h9.47c.55,0,1,.45,1,1v21.88c0,1.42.1,2.63.3,3.58.18.87.47,1.56.85,2.05.37.49.83.83,1.42,1.03.66.23,1.5.35,2.5.35.91,0,1.74-.09,2.46-.28.7-.18,1.32-.43,1.84-.76.43-.28.83-.63,1.17-1.03.31-.36.58-.76.82-1.19v-25.62c0-.55.45-1,1-1h9.51c.55,0,1,.45,1,1v36.88c0,.55-.45,1-1,1h-8.59c-.51,0-.94-.39-.99-.9l-.29-2.75c-.98,1.06-2.07,1.94-3.27,2.65-1.91,1.13-4.02,1.71-6.29,1.71Z"/>
        <path class="cls-2" d="m328.84,17.47v36.88h-8.59l-.55-5.18c-1.25,1.84-2.75,3.28-4.52,4.33s-3.69,1.57-5.78,1.57c-1.91,0-3.66-.3-5.25-.89s-2.95-1.53-4.09-2.83c-1.14-1.27-2.02-2.9-2.64-4.89-.62-1.99-.94-4.38-.94-7.17v-21.81h9.47v21.88c0,1.5.11,2.76.32,3.78s.56,1.84,1.04,2.45c.48.64,1.1,1.09,1.87,1.36.77.27,1.72.41,2.83.41,1,0,1.9-.1,2.71-.31.81-.2,1.52-.5,2.13-.89.52-.34.99-.75,1.4-1.23.41-.48.76-1.01,1.06-1.6v-25.87h9.51m0-2h-9.51c-1.1,0-2,.9-2,2v25.36c-.17.29-.36.56-.58.81-.28.33-.61.62-.97.85-.41.26-.93.47-1.53.62-.64.16-1.39.25-2.22.25-.88,0-1.61-.1-2.16-.29-.4-.14-.7-.36-.94-.68-.31-.4-.53-.95-.68-1.67-.19-.88-.28-2.02-.28-3.37v-21.88c0-1.1-.9-2-2-2h-9.47c-1.1,0-2,.9-2,2v21.81c0,2.99.35,5.6,1.03,7.77.71,2.25,1.74,4.14,3.06,5.62,1.34,1.53,2.99,2.67,4.89,3.37,1.81.67,3.81,1.01,5.94,1.01,2.44,0,4.73-.62,6.8-1.85.69-.41,1.35-.88,1.97-1.39l.08.74c.11,1.02.97,1.79,1.99,1.79h8.59c1.1,0,2-.9,2-2V17.47c0-1.1-.9-2-2-2h0Z"/>
      </g>
      <g>
        <path class="cls-1" d="m359.38,56.07c-2.12,0-4.07-.29-5.81-.85-1.79-.58-3.34-1.5-4.6-2.74-1.27-1.2-2.28-2.77-2.97-4.65-.67-1.84-1.01-4.06-1.01-6.6v-15.77h-7.42c-.55,0-1-.45-1-1v-6.99c0-.55.45-1,1-1h7.42v-8.03c0-.55.45-1,1-1h9.47c.55,0,1,.45,1,1v8.03h12.77c.55,0,1,.45,1,1v6.99c0,.55-.45,1-1,1h-12.77v14.85c0,1.22.14,2.24.41,3.03.25.73.6,1.31,1.04,1.72.47.45,1,.75,1.66.93.71.2,1.54.3,2.44.3.69,0,1.41-.03,2.14-.1.73-.06,1.45-.15,2.13-.26.69-.09,1.31-.19,1.9-.3.57-.11,1.07-.22,1.48-.33.08-.02.17-.03.25-.03.2,0,.39.06.55.17.24.16.4.41.44.69l.92,6.51c.06.4-.13.8-.48,1-.72.42-1.57.79-2.52,1.09-.92.3-1.92.54-2.96.73-1.02.19-2.09.33-3.2.44-1.11.1-2.21.16-3.28.16Z"/>
        <path class="cls-2" d="m355.46,8.44v9.03h13.77v6.99h-13.77v15.85c0,1.34.15,2.46.46,3.36.31.9.74,1.61,1.31,2.13.57.55,1.26.93,2.06,1.16.81.23,1.71.34,2.71.34.73,0,1.47-.03,2.23-.1.76-.07,1.49-.16,2.2-.27.68-.09,1.32-.19,1.93-.31.6-.11,1.12-.23,1.55-.34l.92,6.51c-.66.39-1.43.72-2.32,1.01-.89.28-1.83.52-2.83.7-1,.18-2.04.32-3.12.43s-2.14.15-3.19.15c-2.02,0-3.86-.27-5.5-.8-1.65-.53-3.05-1.37-4.21-2.51-1.18-1.11-2.09-2.54-2.73-4.28-.64-1.74-.95-3.82-.95-6.25v-16.77h-8.42v-6.99h8.42v-9.03h9.47m0-2h-9.47c-1.1,0-2,.9-2,2v7.03h-6.42c-1.1,0-2,.9-2,2v6.99c0,1.1.9,2,2,2h6.42v14.77c0,2.66.36,4.99,1.08,6.94.74,2.02,1.83,3.72,3.23,5.05,1.35,1.32,3.03,2.32,4.96,2.95,1.84.6,3.9.9,6.12.9,1.1,0,2.24-.05,3.38-.16,1.13-.11,2.24-.26,3.29-.45,1.08-.2,2.12-.45,3.08-.76,1.02-.33,1.94-.73,2.72-1.18.7-.41,1.08-1.2.97-2.01l-.92-6.51c-.08-.57-.4-1.07-.87-1.39-.33-.22-.72-.33-1.11-.33-.17,0-.34.02-.51.07-.38.1-.86.21-1.41.31-.56.11-1.18.2-1.82.29-.02,0-.04,0-.05,0-.65.11-1.35.19-2.06.26-.7.06-1.39.09-2.05.09-.81,0-1.54-.09-2.17-.27-.49-.14-.89-.36-1.22-.68-.35-.32-.61-.76-.8-1.33-.23-.68-.35-1.6-.35-2.71v-13.85h11.77c1.1,0,2-.9,2-2v-6.99c0-1.1-.9-2-2-2h-11.77v-7.03c0-1.1-.9-2-2-2h0Z"/>
      </g>
      <g>
        <path class="cls-1" d="m382.49,55.35c-.55,0-1-.45-1-1v-7.7c0-.55.45-1,1-1h9.5v-19.44h-9.5c-.55,0-1-.45-1-1v-7.74c0-.55.45-1,1-1h20.07c.55,0,1,.45,1,1v28.17h8.99c.55,0,1,.45,1,1v7.7c0,.55-.45,1-1,1h-30.06Zm15.27-41.27c-.93,0-1.8-.15-2.58-.44-.79-.3-1.49-.72-2.06-1.27-.57-.51-1.02-1.16-1.34-1.92-.31-.75-.47-1.56-.47-2.42s.16-1.67.47-2.41c.31-.75.77-1.41,1.34-1.96.59-.53,1.28-.94,2.06-1.24.78-.29,1.65-.44,2.58-.44,1.94,0,3.52.57,4.69,1.69,1.19,1.13,1.79,2.6,1.79,4.35s-.6,3.22-1.79,4.35c-1.18,1.12-2.76,1.69-4.7,1.69Z"/>
        <path class="cls-2" d="m397.76,2.99c1.68,0,3.02.47,4,1.41s1.48,2.15,1.48,3.63-.49,2.69-1.48,3.63c-.99.94-2.32,1.41-4,1.41-.82,0-1.56-.12-2.23-.37s-1.24-.6-1.72-1.06c-.48-.43-.85-.96-1.11-1.58-.26-.62-.39-1.3-.39-2.03s.13-1.4.39-2.03c.26-.62.63-1.16,1.11-1.62.48-.43,1.05-.77,1.72-1.02.67-.25,1.41-.37,2.23-.37m4.81,14.48v29.17h9.99v7.7h-30.06v-7.7h10.5v-21.44h-10.5v-7.74h20.07m-4.81-16.48c-1.05,0-2.04.17-2.93.5-.91.34-1.7.81-2.36,1.41-.01.01-.03.02-.04.03-.68.64-1.21,1.42-1.57,2.3-.36.87-.55,1.81-.55,2.8s.18,1.93.55,2.8c.37.89.91,1.65,1.59,2.28.67.63,1.47,1.12,2.38,1.46.89.33,1.88.5,2.93.5,2.21,0,4.02-.66,5.39-1.97,1.38-1.31,2.1-3.07,2.1-5.08s-.73-3.76-2.1-5.08c-1.37-1.31-3.18-1.97-5.39-1.97h0Zm4.81,14.48h-20.07c-1.1,0-2,.9-2,2v7.74c0,1.1.9,2,2,2h8.5v17.44h-8.5c-1.1,0-2,.9-2,2v7.7c0,1.1.9,2,2,2h30.06c1.1,0,2-.9,2-2v-7.7c0-1.1-.9-2-2-2h-7.99v-27.17c0-1.1-.9-2-2-2h0Z"/>
      </g>
      <g>
        <path class="cls-1" d="m438.01,56.07c-2.9,0-5.52-.5-7.81-1.5-2.3-1-4.25-2.41-5.82-4.19-1.58-1.77-2.79-3.89-3.6-6.29-.8-2.38-1.21-5-1.21-7.8v-.72c0-2.78.41-5.39,1.21-7.77.81-2.4,2.03-4.52,3.61-6.29,1.56-1.78,3.51-3.19,5.78-4.2,2.27-1.01,4.88-1.52,7.79-1.52s5.52.51,7.8,1.52c2.28,1.01,4.24,2.42,5.83,4.2,1.56,1.78,2.76,3.9,3.58,6.29.8,2.38,1.21,4.99,1.21,7.77v.72c0,2.8-.41,5.43-1.21,7.8-.81,2.4-2.01,4.51-3.57,6.29-1.57,1.79-3.52,3.2-5.8,4.19-2.28.99-4.89,1.5-7.76,1.5Zm-.07-30.61c-1.22,0-2.27.25-3.1.75-.86.51-1.57,1.21-2.11,2.09-.57.92-1,2.01-1.27,3.23-.28,1.26-.42,2.62-.42,4.04v.72c0,1.47.14,2.86.42,4.13.27,1.23.69,2.31,1.26,3.2.56.9,1.25,1.58,2.13,2.09.85.5,1.91.75,3.16.75s2.23-.25,3.07-.75c.87-.51,1.56-1.19,2.11-2.09.55-.89.96-1.98,1.24-3.21.28-1.27.42-2.67.42-4.13v-.72c0-1.42-.14-2.78-.42-4.04-.27-1.23-.69-2.32-1.24-3.25-.55-.88-1.24-1.56-2.11-2.07-.84-.5-1.89-.75-3.14-.75Z"/>
        <path class="cls-2" d="m437.94,16.79c2.77,0,5.24.48,7.4,1.43s3.99,2.27,5.49,3.95c1.48,1.68,2.6,3.66,3.37,5.95.77,2.28,1.16,4.77,1.16,7.45v.72c0,2.7-.39,5.2-1.16,7.48-.77,2.28-1.9,4.27-3.37,5.95-1.48,1.68-3.29,2.99-5.45,3.94s-4.61,1.41-7.36,1.41-5.24-.47-7.41-1.41c-2.17-.94-3.99-2.26-5.47-3.94-1.5-1.68-2.64-3.66-3.41-5.95-.77-2.28-1.16-4.78-1.16-7.48v-.72c0-2.68.39-5.16,1.16-7.45.77-2.28,1.91-4.27,3.41-5.95,1.48-1.68,3.29-3,5.44-3.95s4.61-1.43,7.38-1.43m.07,30.67c1.39,0,2.58-.3,3.58-.89s1.82-1.4,2.45-2.42c.61-1,1.07-2.18,1.36-3.53.3-1.35.44-2.8.44-4.35v-.72c0-1.5-.15-2.92-.44-4.26s-.75-2.52-1.36-3.54c-.64-1.02-1.45-1.83-2.45-2.42s-2.22-.89-3.65-.89-2.61.3-3.61.89-1.82,1.4-2.45,2.42-1.1,2.2-1.4,3.54-.44,2.76-.44,4.26v.72c0,1.55.15,2.99.44,4.35.3,1.35.76,2.53,1.4,3.53.64,1.02,1.46,1.83,2.47,2.42,1.01.59,2.23.89,3.66.89m-.07-32.67c-3.04,0-5.8.54-8.19,1.6-2.4,1.07-4.46,2.57-6.13,4.46-1.66,1.86-2.94,4.1-3.8,6.63-.84,2.48-1.26,5.2-1.26,8.09v.72c0,2.91.43,5.64,1.26,8.12.86,2.53,2.14,4.76,3.81,6.64,1.66,1.89,3.73,3.38,6.17,4.44,2.41,1.05,5.17,1.58,8.21,1.58s5.76-.53,8.16-1.58c2.42-1.06,4.49-2.55,6.16-4.45,1.65-1.87,2.91-4.1,3.77-6.63.84-2.48,1.26-5.21,1.26-8.12v-.72c0-2.89-.43-5.61-1.26-8.09-.85-2.52-2.12-4.75-3.77-6.63-1.69-1.9-3.77-3.4-6.18-4.46-2.4-1.06-5.17-1.6-8.2-1.6h0Zm.07,30.67c-1.07,0-1.96-.21-2.65-.61-.73-.43-1.32-1-1.78-1.75-.52-.81-.9-1.78-1.14-2.9-.26-1.21-.4-2.52-.4-3.92v-.72c0-1.35.13-2.64.4-3.83.25-1.11.63-2.09,1.14-2.92.47-.75,1.05-1.33,1.77-1.75.68-.4,1.56-.61,2.6-.61s1.95.2,2.63.61c.73.43,1.31,1,1.77,1.75.48.8.86,1.8,1.11,2.92.26,1.19.4,2.48.4,3.83v.72c0,1.39-.13,2.71-.4,3.92-.25,1.13-.62,2.1-1.11,2.91-.46.74-1.04,1.32-1.77,1.74-.69.41-1.53.61-2.56.61h0Z"/>
      </g>
      <g>
        <path class="cls-1" d="m487.19,55.35c-.55,0-1-.45-1-1v-22.56c0-1.33-.15-2.43-.44-3.27-.27-.78-.65-1.39-1.13-1.81-.5-.44-1.08-.74-1.79-.92-.78-.2-1.68-.29-2.69-.29-.82,0-1.57.09-2.25.27-.65.17-1.22.44-1.72.78-.44.28-.81.58-1.14.92-.28.3-.54.62-.78.98v25.91c0,.55-.45,1-1,1h-9.51c-.55,0-1-.45-1-1V17.47c0-.55.45-1,1-1h8.59c.51,0,.94.38.99.89l.32,2.78s.09-.09.13-.13c.61-.61,1.26-1.16,1.93-1.64,1.17-.83,2.47-1.47,3.86-1.91,1.39-.44,2.88-.66,4.43-.66,1.97,0,3.8.29,5.45.88,1.69.6,3.17,1.55,4.41,2.84,1.22,1.32,2.17,2.99,2.83,4.99.66,1.97.99,4.37.99,7.15v22.7c0,.55-.45,1-1,1h-9.47Z"/>
        <path class="cls-2" d="m483.99,16.79c1.86,0,3.57.27,5.11.82s2.89,1.41,4.02,2.59c1.11,1.2,1.98,2.74,2.61,4.62.62,1.87.94,4.15.94,6.83v22.7h-9.47v-22.56c0-1.45-.16-2.65-.49-3.6-.33-.94-.8-1.69-1.41-2.23-.61-.55-1.35-.93-2.22-1.14s-1.84-.32-2.93-.32c-.91,0-1.74.1-2.51.31-.76.2-1.44.51-2.03.92-.48.3-.91.65-1.3,1.06-.39.41-.74.86-1.06,1.36v26.21h-9.51V17.47h8.59l.58,5.11c.48-.68,1-1.31,1.57-1.87s1.17-1.08,1.81-1.53c1.09-.77,2.28-1.36,3.58-1.77,1.3-.41,2.67-.61,4.12-.61m0-2c-1.65,0-3.24.24-4.73.71-1.49.47-2.88,1.16-4.13,2.05-.24.17-.48.35-.72.54l-.1-.84c-.11-1.01-.97-1.77-1.99-1.77h-8.59c-1.1,0-2,.9-2,2v36.88c0,1.1.9,2,2,2h9.51c1.1,0,2-.9,2-2v-25.59c.16-.22.33-.42.51-.61.27-.28.57-.53.89-.73.03-.02.06-.04.09-.06.4-.28.87-.49,1.41-.63.59-.16,1.26-.24,1.99-.24.92,0,1.75.09,2.45.26.55.14,1,.37,1.37.7.35.31.64.78.86,1.4.25.73.38,1.71.38,2.94v22.56c0,1.1.9,2,2,2h9.47c1.1,0,2-.9,2-2v-22.7c0-2.88-.35-5.4-1.04-7.47-.71-2.14-1.73-3.93-3.04-5.34-1.38-1.43-2.99-2.47-4.82-3.12-1.75-.62-3.7-.93-5.78-.93h0Z"/>
      </g>
      <g>
        <path class="cls-1" d="m522.02,56.07c-2.87,0-5.45-.39-7.67-1.14-2.23-.76-4.13-1.78-5.65-3.04-1.53-1.24-2.71-2.69-3.51-4.3-.8-1.62-1.21-3.28-1.21-4.93,0-.55.45-1,1-1h9.03c.53,0,.96.41,1,.93.06.82.28,1.52.65,2.09.39.59.89,1.05,1.51,1.41.67.41,1.43.7,2.28.88.89.19,1.83.29,2.78.29,1.14,0,2.15-.1,2.99-.3.81-.19,1.47-.44,1.97-.75.42-.27.74-.58.94-.92.19-.32.29-.67.29-1.06s-.08-.71-.25-.98c-.12-.2-.39-.51-1.03-.88-.58-.31-1.42-.63-2.46-.92-1.08-.31-2.47-.62-4.14-.93-2.21-.44-4.25-1-6.07-1.66-1.87-.68-3.49-1.52-4.83-2.5-1.37-.98-2.47-2.15-3.25-3.47-.81-1.35-1.21-2.93-1.21-4.67s.41-3.3,1.21-4.83c.79-1.51,1.94-2.85,3.41-3.98,1.45-1.11,3.23-2,5.28-2.65,2.04-.64,4.37-.97,6.91-.97s5.07.32,7.2.94c2.15.63,4,1.51,5.52,2.62,1.54,1.17,2.72,2.55,3.54,4.13.82,1.59,1.24,3.34,1.24,5.2,0,.55-.45,1-1,1h-9.47c-.55,0-1-.45-1-1,0-.49-.08-.95-.24-1.36-.16-.41-.39-.78-.71-1.12-.44-.44-1.09-.82-1.91-1.11-.85-.3-1.92-.45-3.16-.45-1.07,0-2,.1-2.78.31-.73.19-1.33.46-1.77.79-.39.29-.67.59-.86.95-.18.35-.27.7-.27,1.08s.08.75.24,1.08c.14.29.43.57.85.83.52.35,1.22.66,2.12.94.95.29,2.18.55,3.67.77,2.27.37,4.4.85,6.34,1.43,1.99.59,3.74,1.36,5.2,2.3,1.51.99,2.71,2.21,3.57,3.61.88,1.44,1.32,3.16,1.32,5.11,0,1.8-.44,3.49-1.31,5.01-.86,1.5-2.07,2.81-3.62,3.89-1.55,1.06-3.41,1.9-5.56,2.48-2.12.58-4.51.87-7.11.87Z"/>
        <path class="cls-2" d="m521.99,16.79c2.57,0,4.87.3,6.92.9s3.78,1.43,5.21,2.47c1.41,1.07,2.49,2.33,3.24,3.78.75,1.45,1.12,3.03,1.12,4.74h-9.47c0-.61-.1-1.19-.31-1.72-.2-.53-.51-1.02-.92-1.45-.57-.57-1.33-1.02-2.3-1.36-.97-.34-2.13-.51-3.49-.51-1.16,0-2.17.11-3.03.34-.86.23-1.57.55-2.11.95-.5.36-.88.79-1.14,1.28-.26.49-.39,1.01-.39,1.55s.11,1.05.34,1.52c.23.47.64.88,1.23,1.24.57.39,1.35.73,2.35,1.04,1,.31,2.27.57,3.82.8,2.23.36,4.29.83,6.2,1.4s3.56,1.3,4.94,2.18c1.39.91,2.47,2.01,3.25,3.29.78,1.28,1.18,2.81,1.18,4.58,0,1.64-.39,3.14-1.18,4.52-.78,1.37-1.89,2.56-3.32,3.56-1.45,1-3.2,1.78-5.25,2.33s-4.33.83-6.85.83c-2.77,0-5.22-.36-7.34-1.09-2.12-.73-3.9-1.68-5.33-2.86-1.43-1.16-2.52-2.48-3.25-3.97-.74-1.49-1.11-2.98-1.11-4.48h9.03c.07,1,.34,1.86.82,2.57.48.72,1.09,1.29,1.84,1.72.75.45,1.61.78,2.57.99.97.2,1.96.31,2.98.31,1.23,0,2.3-.11,3.22-.32s1.68-.51,2.27-.87c.57-.36.99-.78,1.28-1.26.28-.48.43-1,.43-1.57s-.13-1.07-.39-1.5-.72-.84-1.38-1.23c-.68-.36-1.58-.7-2.69-1.02s-2.52-.64-4.23-.95c-2.16-.43-4.13-.97-5.91-1.62-1.78-.65-3.31-1.44-4.58-2.37-1.27-.91-2.27-1.97-2.98-3.17-.72-1.2-1.07-2.59-1.07-4.16s.36-2.98,1.09-4.36c.73-1.39,1.77-2.6,3.14-3.65,1.36-1.05,3.02-1.87,4.98-2.49,1.95-.61,4.16-.92,6.61-.92m0-2c-2.65,0-5.07.34-7.21,1.01-2.17.68-4.05,1.63-5.59,2.81-1.59,1.22-2.83,2.67-3.69,4.3-.88,1.67-1.32,3.45-1.32,5.29s.46,3.67,1.35,5.18c.86,1.44,2.05,2.71,3.54,3.78,1.4,1.03,3.11,1.91,5.06,2.62,1.87.68,3.96,1.25,6.2,1.7,1.66.31,3.02.62,4.07.92.95.27,1.71.56,2.27.85.52.31.64.51.65.52.03.04.1.17.1.46,0,.21-.04.38-.14.54-.12.21-.34.41-.64.6-.37.23-.94.44-1.65.61-.77.18-1.7.27-2.76.27-.88,0-1.74-.09-2.57-.26-.74-.16-1.4-.41-1.95-.74-.52-.3-.91-.66-1.21-1.12-.28-.42-.44-.95-.49-1.6-.07-1.05-.94-1.86-2-1.86h-9.03c-1.1,0-2,.9-2,2,0,1.8.44,3.61,1.32,5.37.86,1.74,2.14,3.3,3.79,4.64,1.6,1.32,3.6,2.4,5.94,3.2,2.32.8,5.01,1.2,7.99,1.2,2.69,0,5.17-.3,7.38-.91,2.25-.61,4.22-1.49,5.86-2.62,1.68-1.17,3-2.59,3.93-4.22.95-1.67,1.44-3.53,1.44-5.51,0-2.14-.49-4.03-1.47-5.63-.94-1.53-2.24-2.85-3.87-3.92-1.56-1-3.39-1.81-5.47-2.43-1.98-.59-4.15-1.08-6.45-1.45-1.47-.22-2.65-.46-3.55-.74-1-.31-1.54-.59-1.81-.78-.03-.02-.05-.03-.08-.05-.37-.23-.46-.39-.48-.42-.09-.19-.14-.4-.14-.64,0-.22.05-.41.16-.61.12-.22.3-.42.55-.6.36-.27.84-.48,1.45-.64.69-.18,1.54-.27,2.52-.27,1.13,0,2.08.13,2.83.4.67.23,1.18.53,1.53.87.22.24.38.49.49.77.12.31.17.64.17,1.01,0,1.1.9,2,2,2h9.47c1.1,0,2-.9,2-2,0-2.02-.45-3.92-1.35-5.65-.88-1.71-2.17-3.22-3.81-4.46-1.64-1.2-3.6-2.13-5.86-2.8-2.22-.65-4.74-.98-7.48-.98h0Z"/>
      </g>
    </g>
  </g>
</svg>